<svg xmlns="http://www.w3.org/2000/svg" xmlns:xlink="http://www.w3.org/1999/xlink" viewBox="0 0 52 52" width="52px" height="52px">
<g id="surface182971978">
<path style=" stroke:none;fill-rule:nonzero;fill:rgb(96.470588%,98.823529%,83.92157%);fill-opacity:1;" d="M 9.75 0 C 4.367188 0 0 4.367188 0 9.75 L 0 42.25 C 0 47.632812 4.367188 52 9.75 52 L 42.25 52 C 47.632812 52 52 47.632812 52 42.25 L 52 9.75 C 52 4.367188 47.632812 0 42.25 0 Z M 9.75 4 L 42.25 4 C 45.421875 4 48 6.578125 48 9.75 L 48 18 L 39.8125 18 C 37.039062 13.226562 31.90625 10 26 10 C 20.09375 10 14.960938 13.226562 12.1875 18 L 4 18 L 4 9.75 C 4 6.578125 6.578125 4 9.75 4 Z M 40 6 C 38.898438 6 38 6.898438 38 8 L 38 12 C 38 13.101562 38.898438 14 40 14 L 44 14 C 45.101562 14 46 13.101562 46 12 L 46 8 C 46 6.898438 45.101562 6 44 6 Z M 26 14 C 29.554688 14 32.742188 15.546875 34.9375 18 C 34.960938 18.023438 34.984375 18.039062 35 18.0625 C 35.09375 18.164062 35.164062 18.273438 35.25 18.375 C 35.492188 18.671875 35.71875 18.992188 35.9375 19.3125 C 36.023438 19.4375 36.109375 19.554688 36.1875 19.6875 C 36.507812 20.203125 36.820312 20.75 37.0625 21.3125 C 37.109375 21.414062 37.148438 21.523438 37.1875 21.625 C 37.289062 21.882812 37.351562 22.171875 37.4375 22.4375 C 37.507812 22.664062 37.570312 22.898438 37.625 23.125 C 37.664062 23.273438 37.71875 23.414062 37.75 23.5625 C 37.765625 23.625 37.796875 23.6875 37.8125 23.75 C 37.875 24.078125 37.90625 24.414062 37.9375 24.75 C 37.984375 25.164062 38 25.570312 38 26 C 38 28.484375 37.234375 30.773438 35.9375 32.6875 C 33.992188 35.5625 30.882812 37.570312 27.25 37.9375 C 26.84375 37.976562 26.414062 38 26 38 C 22.273438 38 18.953125 36.289062 16.75 33.625 C 16.507812 33.328125 16.28125 33.007812 16.0625 32.6875 C 14.765625 30.773438 14 28.484375 14 26 C 14 25.625 14.03125 25.242188 14.0625 24.875 C 14.070312 24.835938 14.054688 24.789062 14.0625 24.75 C 14.070312 24.640625 14.109375 24.546875 14.125 24.4375 C 14.164062 24.148438 14.1875 23.851562 14.25 23.5625 C 14.3125 23.257812 14.414062 22.984375 14.5 22.6875 C 14.523438 22.609375 14.539062 22.515625 14.5625 22.4375 C 14.59375 22.335938 14.59375 22.226562 14.625 22.125 C 14.695312 21.914062 14.789062 21.703125 14.875 21.5 C 14.898438 21.4375 14.914062 21.375 14.9375 21.3125 C 15.179688 20.75 15.492188 20.203125 15.8125 19.6875 C 15.890625 19.554688 15.976562 19.4375 16.0625 19.3125 C 16.351562 18.882812 16.65625 18.453125 17 18.0625 C 17.023438 18.039062 17.039062 18.023438 17.0625 18 C 19.257812 15.546875 22.445312 14 26 14 Z M 26 18.375 C 24.546875 18.375 23.21875 18.796875 22.0625 19.5 C 22.421875 19.390625 22.796875 19.3125 23.1875 19.3125 C 25.320312 19.3125 27.0625 21.046875 27.0625 23.1875 C 27.0625 25.320312 25.320312 27.0625 23.1875 27.0625 C 21.054688 27.0625 19.3125 25.320312 19.3125 23.1875 C 19.3125 22.789062 19.390625 22.421875 19.5 22.0625 C 18.796875 23.21875 18.375 24.546875 18.375 26 C 18.375 30.210938 21.78125 33.625 26 33.625 C 30.210938 33.625 33.625 30.21875 33.625 26 C 33.625 21.78125 30.210938 18.375 26 18.375 Z M 26 18.375 "/>
</g>
</svg>
